<?xml version="1.0" encoding="UTF-8"?>
<svg id="_Слой_2" data-name="Слой 2" xmlns="http://www.w3.org/2000/svg" viewBox="0 0 721.94 343.92">
  <defs>
    <style>
      .cls-1 {
        stroke-width: 0px;
      }
    </style>
  </defs>
  <g id="_Слой_1-2" data-name="Слой 1">
    <path class="cls-1" d="m192.17,62c-5.3-21.5-15.2-43.9-25.3-57.3-2-2.6-3.31-4.7-3.31-4.7,0,0-10.99,16.4-14.79,23.8-4.2,8.2-10.7,26.9-13.7,39.2-10.3,43.2-5.4,89.6,13.7,128.5,6.1,12.5,14.79,23.31,14.79,23.31,0,0,8.31-8.41,15.31-22.71,19.6-40.5,24.3-85.8,13.3-130.1Zm-19.2,108c-.33,14.7-.2,16-3.2,25-3.6,11-6.3,11.8-6.3,11.8,0,0-8.49-11.33-8.9-28.4-.37-15.78,1.4-35.3,7-45.3l1.99-2.5,1.21,2.3s8.69,15.32,8.2,37.1Zm17.1-55c-.4,9.9-2.59,26.89-2.59,26.89,0,0-.29-2.23-1.21-9.89-2.94-24.59-4.13-31.19-11.38-53.28-3.73-11.36-11.34-25.71-11.34-25.71,0,0-7.89,13.28-12.19,25.58-5.5,15.8-8.5,29.6-9.8,45.9-.69,8.31-2.21,17.39-2.21,17.39,0,0-1.04-11.09-1.49-24.69-.4-15,.4-28.5,2.4-37.2.1-.8.8-4.2,1.5-7.5,1.8-8.9,7.4-27.3,10.2-33.5,1.3-3,4.07-8.57,6.21-12.65s5.37-8.35,5.37-8.35c0,0,4.41,5.3,7.81,12.9,1.9,4.2,4.1,9.1,5,10.9,8.2,18.2,14.5,51.7,13.7,73.2Z"/>
    <g>
      <path class="cls-1" d="m471.7,313.57c1.78,1.98,4.05,2,6.93,2.11v-25.19c-2.86.12-5.13.1-6.92,2-1.92,2.03-1.89,6.18-1.89,10.35s-.03,8.6,1.89,10.73Z"/>
      <path class="cls-1" d="m488.23,290.49v25.19c2.88-.11,5.16-.13,6.93-2.11,1.91-2.13,1.88-6.4,1.88-10.73s.03-8.32-1.89-10.35c-1.79-1.9-4.06-1.88-6.93-2Z"/>
      <g>
        <path class="cls-1" d="m686.28,308.36c-.91-.56-1.96-.95-3.14-1.17-1.29-.24-2.94-.36-4.89-.36h-2.81v15h4.43c3.13,0,5.44-.55,6.86-1.63,1.26-.96,1.89-2.85,1.89-5.61,0-1.72-.22-3.13-.66-4.19-.38-.91-.93-1.58-1.69-2.04Z"/>
        <path class="cls-1" d="m239.99,263.61v79.87h481.49v-79.87H239.99Zm57.6,67.28h-9.6v-24.06h-15.38v24.06h-9.6v-54.69h9.6v21.55h15.38v-21.55h9.6v54.69Zm97.28,0h-29.47v-54.69h29.4v9.09h-19.79v12.46h18.52v9.09h-18.52v15h19.86v9.05Zm111.41-18.33c-1.1,2.88-2.64,5.23-4.59,6.99-1.9,1.72-4.08,3.04-6.47,3.92-2.18.8-4.52,1.23-6.98,1.3v6.13h-9.6v-6.12c-2.48-.06-4.84-.49-7.03-1.28-2.4-.87-4.57-2.18-6.46-3.91-1.93-1.76-3.47-4.11-4.56-6.99-1.07-2.8-1.61-6.04-1.61-9.61,0-2.87.38-5.53,1.12-7.92.75-2.42,1.8-4.49,3.1-6.16,1.29-1.66,2.82-3.08,4.57-4.22,1.74-1.14,3.6-1.98,5.52-2.49,1.72-.46,3.51-.71,5.35-.75v-5.23h9.6v5.23c1.82.04,3.6.3,5.3.75,1.91.51,3.77,1.34,5.51,2.47,1.75,1.14,3.3,2.55,4.6,4.21,1.32,1.68,2.37,3.76,3.12,6.19.75,2.39,1.12,5.06,1.12,7.93,0,3.55-.54,6.78-1.61,9.58Zm96.04-27.27h-13.09v45.6h-9.6v-45.6h-13.16v-9.09h35.86v9.09Zm91.44,41.61c-3.04,2.65-7.24,4-12.48,4h-15.44v-54.69h9.6v21.55h4.7c2.03,0,3.91.15,5.57.44,1.73.31,3.41.85,4.98,1.62,1.65.8,3.05,1.87,4.18,3.17,1.12,1.3,2.02,2.96,2.66,4.95.62,1.93.94,4.17.94,6.66,0,5.44-1.58,9.58-4.71,12.3Z"/>
      </g>
    </g>
    <g>
      <path class="cls-1" d="m264.35,222.26h-24.86v-117.64h37.83v18.99h-12.97v98.65Z"/>
      <path class="cls-1" d="m286.88,222.26l14.82-117.64h30.57l14.82,117.64h-23.47l-1.7-23.47h-9.88l-1.85,23.47h-23.31Zm30.11-95.57l-3.71,53.11h7.41l-3.71-53.11Z"/>
      <path class="cls-1" d="m359.14,140.22v-12.45c0-3.5.12-6.43.36-8.8.24-2.37.64-4.37,1.21-6.02.57-1.65,1.35-2.98,2.35-4.01,1-1.03,2.25-1.95,3.77-2.78,1.61-.82,4.08-1.39,7.4-1.7,3.32-.31,8.25-.46,14.8-.46,3.22,0,5.91.1,8.04.31,2.14.21,3.96.59,5.48,1.16,1.52.57,2.77,1.31,3.77,2.24,1,.93,1.92,2.16,2.77,3.71.47.93.88,1.93,1.21,3.01.33,1.08.59,2.47.78,4.17.19,1.7.31,3.78.36,6.25.05,2.47.07,5.56.07,9.26,0,3.09-.05,5.66-.14,7.72-.1,2.06-.26,3.84-.5,5.33-.24,1.49-.55,2.73-.93,3.71-.38.98-.9,1.93-1.57,2.86-.48.72-.9,1.31-1.28,1.78-.38.46-.81.88-1.28,1.24-.48.36-1.05.72-1.71,1.08-.67.36-1.52.75-2.56,1.16,3.13,1.34,5.5,3.3,7.12,5.87,1.04,1.65,1.75,3.63,2.13,5.94.38,2.32.57,5.89.57,10.73v12.66c0,3.91-.05,7.13-.14,9.65-.1,2.52-.26,4.61-.5,6.25-.24,1.65-.59,3.01-1.07,4.09-.48,1.08-1.09,2.14-1.85,3.17-.85,1.13-1.83,2.03-2.92,2.7-1.09.67-2.47,1.21-4.13,1.62-1.66.41-3.7.67-6.12.77-2.42.1-5.39.15-8.89.15h-9.11c-1.05,0-1.95-.03-2.7-.08-.76-.05-1.52-.13-2.28-.23-2.75-.51-4.96-1.41-6.62-2.7-1.66-1.29-3.01-3.17-4.06-5.64-.76-1.65-1.26-3.76-1.49-6.33-.24-2.57-.36-6.74-.36-12.51v-15.28h22.91v18.99c0,2.99,1.09,4.48,3.27,4.48,1.33,0,2.25-.56,2.77-1.7.52-1.13.78-3.09.78-5.87v-23.78c0-2.16-.45-3.6-1.35-4.32-.9-.72-2.73-1.08-5.48-1.08h-6.69v-14.36h6.69c1.52,0,2.73-.08,3.63-.23.9-.15,1.59-.51,2.06-1.08.47-.56.78-1.36.93-2.39.14-1.03.21-2.47.21-4.32v-13.9c0-2.47-.28-4.25-.85-5.33-.57-1.08-1.47-1.62-2.7-1.62-1.33,0-2.21.46-2.63,1.39-.43.93-.64,2.78-.64,5.56v9.98h-22.91Z"/>
      <path class="cls-1" d="m482.18,104.62v117.64h-24.86v-98.5h-7.1v98.5h-24.86v-117.64h56.82Z"/>
      <path class="cls-1" d="m523.1,182.89v39.37h-24.86v-117.64h36.44c4.84.1,8.54.64,11.12,1.62,2.57.98,4.68,2.7,6.33,5.17.62.93,1.13,1.91,1.54,2.93.41,1.03.75,2.32,1,3.86.26,1.54.41,3.47.46,5.79.05,2.32.08,5.28.08,8.88v23.16c0,3.4-.05,6.2-.15,8.41-.1,2.21-.29,4.09-.54,5.64-.26,1.54-.64,2.83-1.16,3.86-.52,1.03-1.13,2.06-1.85,3.09-1.65,2.16-3.71,3.68-6.17,4.55-2.47.88-6.23,1.31-11.27,1.31h-10.96Zm0-19.3h1.85c1.13,0,2.06-.1,2.78-.31.72-.21,1.26-.59,1.62-1.16.36-.56.62-1.39.77-2.47s.23-2.49.23-4.25v-22.85c0-1.95-.05-3.52-.15-4.71-.1-1.18-.33-2.08-.69-2.7-.36-.62-.9-1.03-1.62-1.24-.72-.21-1.65-.31-2.78-.31h-2.01v39.99Z"/>
      <path class="cls-1" d="m563.58,128.7c0-2.57.02-4.71.08-6.41.05-1.7.15-3.17.31-4.4.15-1.24.33-2.26.54-3.09.21-.82.51-1.65.93-2.47,2.06-4.32,5.81-6.84,11.27-7.56,1.54-.21,3.63-.39,6.25-.54,2.62-.15,5.69-.23,9.19-.23,4.01,0,7.31.05,9.88.15,2.57.1,4.71.34,6.41.69,1.7.36,3.09.85,4.17,1.47,1.08.62,2.08,1.44,3.01,2.47,2.37,2.57,3.81,6.02,4.32,10.34.1.93.18,1.85.23,2.78.05.93.1,2.11.15,3.55.05,1.44.08,3.3.08,5.56v71.95c-.21,4.63-.83,8.24-1.85,10.81-1.03,2.57-2.73,4.63-5.1,6.18-.93.62-1.93,1.11-3.01,1.47-1.08.36-2.45.64-4.09.85-1.65.21-3.71.33-6.18.39-2.47.05-5.46.08-8.95.08-2.99,0-5.51-.03-7.57-.08-2.06-.05-3.81-.15-5.25-.31-1.44-.15-2.65-.36-3.63-.62-.98-.26-1.88-.54-2.7-.85-3.09-1.44-5.28-3.65-6.56-6.64-1.29-2.98-1.93-7.31-1.93-12.97v-72.56Zm24.86,68.24c0,2.37.26,4.04.77,5.02.51.98,1.44,1.47,2.78,1.47,2.37,0,3.55-1.85,3.55-5.56v-69.17c0-3.6-1.18-5.4-3.55-5.4-1.34,0-2.26.49-2.78,1.47-.52.98-.77,2.65-.77,5.02v67.16Z"/>
      <path class="cls-1" d="m686.62,105.59h35.32v117.64h-21.96v-75.5l-15.27,75.5h-16.45l-15.27-75.5v75.5h-21.96v-117.64h35.32l10.14,78.71,10.14-78.71Z"/>
    </g>
    <path class="cls-1" d="m166.9,308.94c6.21-6.21,10.26-14.64,10.26-24.12,0-18.94-15.36-34.3-34.3-34.3-8.93,0-17.06,3.41-23.17,9l-.02-.08v-35.71h88.07v82.04c-21.9,23.47-53.11,38.14-87.74,38.14C53.72,343.92,0,290.2,0,223.92s53-119.27,118.65-119.99c.45,0,.89,0,1.34,0v89.63c-37.18,0-67.56,30.14-67.56,67.32s30.14,67.32,67.32,67.32c21.27,0,30.61-2.53,47.14-19.26"/>
  </g>
</svg>